<?xml version="1.0" standalone="no"?><!DOCTYPE svg PUBLIC "-//W3C//DTD SVG 1.1//EN" "http://www.w3.org/Graphics/SVG/1.1/DTD/svg11.dtd"><svg class="icon" width="200px" height="200.00px" viewBox="0 0 1024 1024" version="1.1" xmlns="http://www.w3.org/2000/svg"><path d="M947.68 848h-107.04a16 16 0 0 1-12-5.44 16 16 0 0 1-3.84-12.64l71.36-528A16 16 0 0 1 912 288a16 16 0 0 1 16 13.44l80 476.32a67.36 67.36 0 0 1 0 9.92A60.32 60.32 0 0 1 947.68 848z m-88.8-32h88.8A28.32 28.32 0 0 0 976 787.68a45.28 45.28 0 0 0 0-4.64L913.6 411.2zM804 912h-544a48 48 0 0 1-48-54.4l40.48-299.68a16 16 0 0 1 16-13.92h460.48a72.64 72.64 0 0 0 64-39.04v-1.28l103.2-206.4a16 16 0 0 1 30.08 9.28L851.68 870.4a48 48 0 0 1-47.68 41.6zM283.36 576L244.8 861.92a16 16 0 0 0 3.84 12.64 16 16 0 0 0 12 5.44h544a16 16 0 0 0 16-13.92l64-468.64-60.32 120.64v1.6A104.64 104.64 0 0 1 728.96 576zM728.96 576A104.96 104.96 0 0 1 624 471.04V448a16 16 0 0 0-16-16H248a16 16 0 0 1-14.24-23.2l56-112A16 16 0 0 1 304 288h608a16 16 0 0 1 14.24 23.2l-103.36 206.88v1.6A104.64 104.64 0 0 1 728.96 576zM273.92 400H608a48 48 0 0 1 48 48v23.04A73.28 73.28 0 0 0 728.96 544a72.64 72.64 0 0 0 64-39.04v-1.28L886.08 320H313.92zM728.96 576h-608A104.96 104.96 0 0 1 16 471.04V448a48 48 0 0 1 48-48h544a48 48 0 0 1 48 48v23.04A73.28 73.28 0 0 0 728.96 544a16 16 0 0 1 0 32zM64 432a16 16 0 0 0-16 16v23.04A73.28 73.28 0 0 0 120.96 544h532.64A104.48 104.48 0 0 1 624 471.04V448a16 16 0 0 0-16-16zM248 432a14.88 14.88 0 0 1-7.2-1.76 16 16 0 0 1-7.04-21.44l56-112a16 16 0 1 1 28.48 14.4l-56 112a16 16 0 0 1-14.24 8.8zM400 640h-48a16 16 0 0 1 0-32h48a16 16 0 0 1 0 32zM528 640h-48a16 16 0 0 1 0-32h48a16 16 0 0 1 0 32zM656 640h-48a16 16 0 0 1 0-32h48a16 16 0 0 1 0 32zM784 640h-48a16 16 0 0 1 0-32h48a16 16 0 0 1 0 32zM384 720h-48a16 16 0 0 1 0-32h48a16 16 0 0 1 0 32zM512 720h-48a16 16 0 0 1 0-32h48a16 16 0 0 1 0 32zM640 720h-48a16 16 0 0 1 0-32h48a16 16 0 0 1 0 32zM768 720h-48a16 16 0 0 1 0-32h48a16 16 0 0 1 0 32zM368 800h-48a16 16 0 0 1 0-32h48a16 16 0 0 1 0 32zM496 800h-48a16 16 0 0 1 0-32h48a16 16 0 0 1 0 32zM624 800h-48a16 16 0 0 1 0-32h48a16 16 0 0 1 0 32zM752 800h-48a16 16 0 0 1 0-32h48a16 16 0 0 1 0 32zM896 320H320a48 48 0 0 1-48-48v-64a48 48 0 0 1 48-48h576a48 48 0 0 1 48 48v64a48 48 0 0 1-48 48z m-576-128a16 16 0 0 0-16 16v64a16 16 0 0 0 16 16h576a16 16 0 0 0 16-16v-64a16 16 0 0 0-16-16zM416 272a80 80 0 0 1-80-80 70.08 70.08 0 0 1 2.72-20.32 80 80 0 0 1 154.72 0 16 16 0 1 1-31.04 8 48 48 0 0 0-92.8 0 41.76 41.76 0 0 0-1.6 12.32 48 48 0 0 0 48 48 16 16 0 0 1 0 32zM608 272a80 80 0 0 1-80-80 70.08 70.08 0 0 1 2.72-20.32 80 80 0 0 1 154.72 0 16 16 0 0 1-31.04 8 48 48 0 0 0-92.8 0 41.76 41.76 0 0 0-1.6 12.32 48 48 0 0 0 48 48 16 16 0 0 1 0 32zM800 272a80 80 0 0 1-80-80 70.08 70.08 0 0 1 2.72-20.32 80 80 0 0 1 154.72 0 16 16 0 0 1-31.04 8 48 48 0 0 0-92.8 0 41.76 41.76 0 0 0-1.6 12.32 48 48 0 0 0 48 48 16 16 0 0 1 0 32z" /></svg>