<svg xmlns="http://www.w3.org/2000/svg" xmlns:xlink="http://www.w3.org/1999/xlink" version="1.1" width="256" height="256" viewBox="0 0 256 256" xml:space="preserve">
<desc>Created with Fabric.js 1.7.22</desc>
<defs>
</defs>
<g transform="translate(128 128) scale(0.72 0.72)" style="">
	<g style="stroke: none; stroke-width: 0; stroke-dasharray: none; stroke-linecap: butt; stroke-linejoin: miter; stroke-miterlimit: 10; fill: none; fill-rule: nonzero; opacity: 1;" transform="translate(-175.05 -175.05000000000004) scale(3.89 3.89)" >
	<path d="M 57.532 48.745 l -4.36 -0.734 c -1.205 -0.203 -2.08 -1.143 -2.08 -2.259 l -0.017 -0.704 c 1.93 -1.887 3.176 -4.436 3.409 -7.218 c 0 -0.003 -0.001 -0.005 -0.001 -0.008 c 0 -0.004 0.003 -0.007 0.003 -0.011 l 0.328 -5.095 c 1.846 -2.839 2.446 -5.396 1.762 -7.599 c -0.633 -2.036 -2.348 -3.737 -5.105 -5.068 c 0.214 -0.126 0.49 -0.271 0.843 -0.434 c 0.367 -0.168 0.597 -0.541 0.582 -0.944 c -0.014 -0.403 -0.27 -0.758 -0.647 -0.9 c -5.123 -1.925 -11.641 -1.687 -14.852 3.094 c -1.716 0.675 -2.964 1.935 -3.536 3.578 c -0.813 2.336 -0.213 5.262 1.669 8.262 l 0.31 5.127 c 0.234 2.791 1.488 5.346 3.427 7.235 l -0.017 0.712 c 0 1.092 -0.875 2.031 -2.08 2.234 l -4.36 0.734 c -1.662 0.279 -3.111 1.217 -3.977 2.573 c -0.539 0.844 -0.824 1.811 -0.824 2.796 v 18.407 c 0 0.553 0.448 1 1 1 h 32.323 c 0.553 0 1 -0.447 1 -1 V 54.114 C 62.332 51.472 60.313 49.214 57.532 48.745 z M 35.748 25.098 c 0.407 -1.17 1.314 -2.021 2.625 -2.463 c 0.221 -0.075 0.408 -0.224 0.531 -0.421 c 1.583 -2.557 4.369 -3.577 7.324 -3.577 c 1.084 0 2.189 0.137 3.268 0.386 c -0.38 0.359 -0.609 0.732 -0.706 1.137 c -0.116 0.484 0.142 0.979 0.604 1.163 c 2.957 1.17 4.73 2.646 5.271 4.387 c 0.304 0.979 0.234 2.097 -0.206 3.345 c -0.104 -0.188 -0.233 -0.353 -0.391 -0.492 c -0.382 -0.337 -0.881 -0.469 -1.385 -0.375 c -1.847 0.289 -3.885 0.427 -6.258 -0.48 c -2.708 -1.134 -6.116 -2.249 -8.442 -0.799 c -0.867 0.541 -1.503 1.363 -1.917 2.485 C 35.445 27.782 35.328 26.306 35.748 25.098 z M 37.833 37.686 l -0.319 -5.274 c 0.124 -1.969 0.637 -3.25 1.528 -3.806 c 1.567 -0.977 4.523 0.073 6.64 0.958 c 2.733 1.046 5.1 0.926 7.096 0.632 c 0.072 0.268 0.131 0.855 0.055 2.14 c 0 0 0 0.001 0 0.001 L 52.49 37.67 c -0.309 3.655 -2.737 6.823 -6.187 8.069 c -0.368 0.133 -0.752 0.2 -1.141 0.2 c -0.39 0 -0.774 -0.067 -1.142 -0.2 C 40.567 44.492 38.138 41.321 37.833 37.686 z M 41.174 46.563 c 0.675 0.423 1.4 0.78 2.167 1.057 c 0.586 0.212 1.199 0.319 1.821 0.319 c 0.622 0 1.234 -0.107 1.821 -0.319 c 0.774 -0.28 1.505 -0.64 2.186 -1.068 c 0.231 1.183 0.986 2.199 2.046 2.829 l -6.053 6.192 l -6.046 -6.184 C 40.183 48.759 40.943 47.741 41.174 46.563 z M 60.332 71.521 h -6.467 v -6.535 c 0 -0.553 -0.447 -1 -1 -1 s -1 0.447 -1 1 v 6.535 H 38.476 v -6.535 c 0 -0.553 -0.448 -1 -1 -1 s -1 0.447 -1 1 v 6.535 h -6.467 V 54.114 c 0 -0.604 0.176 -1.198 0.509 -1.72 c 0.562 -0.88 1.518 -1.491 2.623 -1.677 l 3.845 -0.648 l 7.461 7.632 c 0.188 0.192 0.446 0.301 0.715 0.301 s 0.527 -0.108 0.715 -0.301 l 7.462 -7.635 l 3.861 0.65 c 1.814 0.306 3.132 1.733 3.132 3.396 V 71.521 z" style="stroke: none; stroke-width: 1; stroke-dasharray: none; stroke-linecap: butt; stroke-linejoin: miter; stroke-miterlimit: 10; fill: rgb(0,0,0); fill-rule: nonzero; opacity: 1;" transform=" matrix(1 0 0 1 0 0) " stroke-linecap="round" />
	<path d="M 85.781 44.547 l -3.723 -0.627 c -0.958 -0.161 -1.653 -0.903 -1.653 -1.787 l -0.013 -0.54 c 0.115 -0.114 0.212 -0.245 0.322 -0.364 h 4.53 c 1.467 0 2.66 -1.193 2.66 -2.66 v -10.34 c 0 -6.116 -5.697 -11.092 -12.7 -11.092 s -12.7 4.976 -12.7 11.092 v 10.34 c 0 1.466 1.193 2.66 2.66 2.66 h 4.515 c 0.115 0.125 0.216 0.262 0.337 0.382 l -0.013 0.547 c 0 0.86 -0.695 1.602 -1.653 1.763 l -3.722 0.627 c -1.23 0.207 -2.336 0.827 -3.112 1.745 c -0.356 0.421 -0.304 1.053 0.118 1.409 c 0.188 0.159 0.417 0.236 0.645 0.236 c 0.284 0 0.566 -0.12 0.765 -0.354 c 0.471 -0.557 1.152 -0.935 1.917 -1.063 l 3.206 -0.54 l 6.315 6.461 c 0.188 0.192 0.445 0.301 0.715 0.301 s 0.527 -0.108 0.715 -0.301 l 6.317 -6.463 l 3.221 0.542 C 86.927 46.769 88 47.927 88 49.274 v 14.713 h -5.228 v -5.432 c 0 -0.553 -0.447 -1 -1 -1 s -1 0.447 -1 1 v 5.432 H 69.636 v -5.432 c 0 -0.553 -0.447 -1 -1 -1 s -1 0.447 -1 1 v 5.432 h -2.177 c -0.553 0 -1 0.447 -1 1 s 0.447 1 1 1 H 89 c 0.553 0 1 -0.447 1 -1 V 49.274 C 90 46.947 88.226 44.959 85.781 44.547 z M 76.121 41.988 c -0.297 0.107 -0.608 0.162 -0.925 0.162 s -0.627 -0.055 -0.925 -0.162 c -2.894 -1.045 -4.93 -3.703 -5.185 -6.746 l -0.262 -4.34 c 0.963 -2.471 3.052 -2.305 6.61 -1.792 c 1.997 0.289 4.197 0.6 6.1 -0.02 l -0.228 6.138 C 81.046 38.291 79.011 40.944 76.121 41.988 z M 65.164 39.229 c -0.364 0 -0.66 -0.296 -0.66 -0.66 v -10.34 c 0 -5.014 4.8 -9.092 10.7 -9.092 s 10.7 4.079 10.7 9.092 v 10.34 c 0 0.364 -0.296 0.66 -0.66 0.66 h -3.098 c 0.63 -1.172 1.039 -2.472 1.154 -3.843 c 0.001 -0.008 -0.003 -0.015 -0.003 -0.023 c 0 -0.008 0.005 -0.015 0.006 -0.024 l 0.293 -7.875 c 0.002 -0.047 -0.017 -0.089 -0.022 -0.135 c -0.007 -0.07 -0.012 -0.139 -0.034 -0.207 c -0.022 -0.069 -0.059 -0.128 -0.095 -0.19 c -0.023 -0.039 -0.031 -0.084 -0.06 -0.121 c -0.009 -0.011 -0.022 -0.016 -0.031 -0.027 c -0.046 -0.055 -0.104 -0.095 -0.161 -0.138 c -0.048 -0.037 -0.091 -0.078 -0.144 -0.105 c -0.051 -0.026 -0.109 -0.037 -0.165 -0.054 c -0.07 -0.021 -0.137 -0.045 -0.21 -0.051 c -0.014 -0.001 -0.026 -0.009 -0.04 -0.01 c -0.048 -0.002 -0.09 0.017 -0.136 0.022 c -0.069 0.007 -0.136 0.011 -0.203 0.033 c -0.065 0.021 -0.121 0.056 -0.18 0.09 c -0.044 0.025 -0.092 0.035 -0.133 0.066 c -1.512 1.179 -3.818 0.846 -6.261 0.492 c -3.263 -0.47 -7.326 -1.058 -8.848 3.272 c -0.001 0.002 -0.001 0.003 -0.002 0.005 c 0 0 0 0 0 0 c -0.008 0.024 -0.004 0.048 -0.01 0.072 c -0.028 0.102 -0.051 0.207 -0.045 0.319 l 0 0.001 c 0 0 0 0.001 0 0.001 l 0.277 4.584 c 0.115 1.371 0.524 2.671 1.154 3.843 H 65.164 z M 75.196 50.311 l -4.933 -5.046 c 0.811 -0.529 1.393 -1.319 1.622 -2.231 c 0.54 0.324 1.102 0.617 1.707 0.836 c 0.517 0.186 1.056 0.28 1.604 0.28 c 0.549 0 1.089 -0.094 1.604 -0.281 c 0.611 -0.221 1.178 -0.518 1.723 -0.846 c 0.228 0.916 0.806 1.705 1.612 2.235 L 75.196 50.311 z" style="stroke: none; stroke-width: 1; stroke-dasharray: none; stroke-linecap: butt; stroke-linejoin: miter; stroke-miterlimit: 10; fill: rgb(0,0,0); fill-rule: nonzero; opacity: 1;" transform=" matrix(1 0 0 1 0 0) " stroke-linecap="round" />
	<path d="M 28.895 47.894 c 0.465 -0.297 0.602 -0.915 0.305 -1.381 c -0.768 -1.204 -2.054 -2.037 -3.528 -2.285 l -3.768 -0.635 c -0.976 -0.164 -1.684 -0.92 -1.685 -1.821 l -0.014 -0.552 c 1.666 -1.649 2.742 -3.863 2.944 -6.28 c 0 -0.003 -0.001 -0.006 -0.001 -0.01 c 0 -0.004 0.002 -0.006 0.003 -0.01 l 0.281 -4.37 c 1.602 -2.476 2.121 -4.714 1.519 -6.649 c -0.54 -1.738 -1.967 -3.197 -4.25 -4.348 c 0.14 -0.075 0.303 -0.156 0.494 -0.244 c 0.367 -0.168 0.596 -0.541 0.582 -0.944 c -0.015 -0.403 -0.27 -0.758 -0.648 -0.9 c -4.465 -1.677 -10.147 -1.471 -12.972 2.69 c -1.5 0.602 -2.592 1.712 -3.095 3.158 c -0.713 2.051 -0.195 4.608 1.438 7.225 l 0.266 4.401 c 0.203 2.425 1.284 4.647 2.96 6.298 l -0.013 0.558 c 0 0.876 -0.708 1.632 -1.684 1.796 l -3.768 0.635 C 1.792 44.644 0 46.651 0 49.002 v 15.906 c 0 0.553 0.448 1 1 1 h 23.882 c 0.552 0 1 -0.447 1 -1 s -0.448 -1 -1 -1 h -2.267 v -5.511 c 0 -0.553 -0.448 -1 -1 -1 s -1 0.447 -1 1 v 5.511 H 9.317 v -5.511 c 0 -0.553 -0.448 -1 -1 -1 s -1 0.447 -1 1 v 5.511 H 2 V 49.002 c 0 -1.37 1.091 -2.549 2.593 -2.802 l 3.252 -0.548 l 6.398 6.545 c 0.188 0.192 0.446 0.301 0.715 0.301 s 0.527 -0.108 0.715 -0.301 l 6.4 -6.547 l 3.266 0.55 c 0.917 0.154 1.71 0.661 2.175 1.389 c 0.19 0.299 0.514 0.462 0.844 0.462 C 28.542 48.051 28.729 48 28.895 47.894 z M 6.952 23.971 c 0.337 -0.97 1.092 -1.677 2.183 -2.044 c 0.221 -0.075 0.408 -0.224 0.531 -0.421 c 1.34 -2.164 3.703 -3.027 6.213 -3.027 c 0.847 0 1.711 0.098 2.558 0.278 c -0.247 0.276 -0.402 0.563 -0.475 0.873 c -0.115 0.483 0.143 0.979 0.604 1.161 c 2.516 0.996 4.021 2.242 4.476 3.706 c 0.232 0.749 0.202 1.599 -0.089 2.542 c -0.062 -0.079 -0.131 -0.153 -0.207 -0.22 c -0.363 -0.319 -0.837 -0.442 -1.306 -0.356 c -1.577 0.246 -3.318 0.365 -5.335 -0.406 c -2.371 -0.993 -5.356 -1.967 -7.42 -0.68 c -0.688 0.429 -1.212 1.052 -1.578 1.883 C 6.687 26.027 6.628 24.902 6.952 23.971 z M 8.487 30.247 c 0.105 -1.651 0.527 -2.72 1.256 -3.175 c 1.301 -0.811 3.812 0.083 5.618 0.839 c 2.331 0.891 4.354 0.813 6.074 0.572 c 0.045 0.256 0.073 0.748 0.018 1.688 c 0 0 0 0.001 0 0.001 l -0.296 4.602 c -0.261 3.108 -2.324 5.801 -5.257 6.861 c 0 0 0 0 -0.001 0 c 0 0 0 0 0 0 c -0.302 0.109 -0.618 0.165 -0.939 0.165 s -0.638 -0.056 -0.94 -0.165 c -2.934 -1.06 -4.998 -3.754 -5.256 -6.84 L 8.487 30.247 z M 14.958 50.067 l -5.012 -5.128 c 0.83 -0.537 1.425 -1.344 1.653 -2.276 c 0.549 0.331 1.122 0.63 1.738 0.853 c 0.521 0.189 1.066 0.285 1.621 0.285 c 0.553 0 1.098 -0.096 1.618 -0.284 c 0.001 0 0.002 0 0.003 0 c 0.623 -0.225 1.201 -0.529 1.756 -0.864 c 0.228 0.936 0.82 1.742 1.643 2.279 L 14.958 50.067 z" style="stroke: none; stroke-width: 1; stroke-dasharray: none; stroke-linecap: butt; stroke-linejoin: miter; stroke-miterlimit: 10; fill: rgb(0,0,0); fill-rule: nonzero; opacity: 1;" transform=" matrix(1 0 0 1 0 0) " stroke-linecap="round" />
</g>
</g>
</svg>