<svg width="143.887" height="144.435" viewBox="0 0 38.07 38.215" xmlns="http://www.w3.org/2000/svg"><path style="fill:#000;stroke-width:.264583" d="M40.516 94.785c-1.116-.486-1.707-1.498-1.707-2.923 0-1.066.145-1.358 1.328-2.664l1.329-1.467-.072-5.217-.072-5.216-2.91-.133-2.91-.132v-.739c0-.627 1.328-1.99 8.833-9.062 4.858-4.577 8.969-8.323 9.135-8.323.165 0 2.084 1.697 4.263 3.77l3.962 3.77.143-1.322c.235-2.19.972-3.043 2.63-3.043.521 0 1.061.238 1.473.65.63.629.649.766.649 4.465v3.816l2.527 2.32c2.108 1.935 2.515 2.434 2.448 3.009-.08.687-.09.69-2.99.821l-2.911.133-.07 8.189c-.053 6.146-.152 8.24-.397 8.396-.18.114-4.938.21-10.573.212-9.77.004-10.286.028-11.113.532-1 .61-1.855.655-2.995.158zm6.515-5.866 4.39-4.385 1.387.252c2.573.468 4.784-.515 5.847-2.598.458-.898.708-2.112.435-2.112-.05 0-.478.193-.95.428-1.642.819-3.938.035-4.75-1.622-.5-1.023-.46-2.614.088-3.45.579-.884.43-1.015-.775-.683-2.866.792-4.425 3.689-3.576 6.649l.265.922-4.498 4.503c-2.68 2.683-4.498 4.707-4.498 5.009 0 .74.775 1.473 1.56 1.473.531 0 1.663-.979 5.075-4.386zm16.384-4.974c0-6.264.076-8.1.343-8.323.19-.156 1.267-.32 2.395-.363l2.051-.078-6.814-6.35c-3.748-3.492-7.08-6.562-7.406-6.82-.59-.469-.614-.45-7.91 6.35l-7.318 6.82 2.077.074c1.565.056 2.158.182 2.408.514.236.313.33 1.804.33 5.21v4.771l1.83-1.816 1.83-1.816-.017-2.013c-.01-1.328.131-2.348.419-2.996 1.11-2.504 3.617-4.17 6.284-4.174 1.392-.003 3.148.4 3.148.723 0 .08-.536.718-1.19 1.418-1.591 1.7-1.621 3.04-.088 3.833 1.033.534 1.687.297 3.185-1.156l1.246-1.208.287.755c1.223 3.216-.066 6.73-3.129 8.53-1.07.63-1.536.731-3.44.75l-2.203.021-2.69 2.69-2.69 2.691H63.415z" transform="translate(-34.501 -57.91)"/></svg>