<svg width="92.48996mm" height="73.063232mm" viewBox="0 0 92.48996 73.063232" id="svg5" inkscape:version="1.1.2 (b8e25be8, 2022-02-05)" sodipodi:docname="robot.svg" xmlns:inkscape="http://www.inkscape.org/namespaces/inkscape" xmlns:sodipodi="http://sodipodi.sourceforge.net/DTD/sodipodi-0.dtd" xmlns="http://www.w3.org/2000/svg" xmlns:svg="http://www.w3.org/2000/svg"><sodipodi:namedview id="namedview7" pagecolor="#ffffff" bordercolor="#666666" borderopacity="1" inkscape:pageshadow="2" inkscape:pageopacity="0" inkscape:pagecheckerboard="0" inkscape:document-units="mm" showgrid="false" fit-margin-top="1" fit-margin-left="1" fit-margin-right="1" fit-margin-bottom="1" lock-margins="true" inkscape:zoom=".75544332" inkscape:cx="80.747289" inkscape:cy="98.61759" inkscape:window-width="1293" inkscape:window-height="1035" inkscape:window-x="647" inkscape:window-y="110" inkscape:window-maximized="0" inkscape:current-layer="layer1" /><defs id="defs2" /><g inkscape:label="图层 1" inkscape:groupmode="layer" id="layer1" transform="translate(-83.566239,-122.30189)"><path style="fill:#000;stroke-width:.538507" d="m87.030957 189.24932v-5.11586h23.694293 23.69429v5.11586 5.1158H110.72525 87.030957zm14.539693-15.92586c0-9.69541.4395-11.4335 3.43203-13.56802 2.44033-1.7407 7.96713-1.71265 10.44263.0509 3.23009 2.3039 3.60337 3.6755 3.61577 13.28556l.0127 8.61614-8.75072.14819-8.75079.1482v-8.68266zm11.88998-1.95586c2.02589-1.19676 3.37078-4.02462 2.91055-6.12003-1.6374-7.45499-12.10802-6.61409-12.10802.97237.0 2.01654.29576 2.69996 1.83095 4.23546 2.11792 2.11793 4.76954 2.44625 7.36652.9122zm-5.96642-2.31229c-1.6035-1.6035-1.43604-4.486.34155-5.88451 2.3121-1.81867 4.60328-1.27639 6.04529 1.43076 1.97157 3.70145-3.39641 7.4445-6.38716 4.45375zm-11.488141 7.71856c-.197806-.19717-.359358-2.6207-.359358-5.38509v-5.02605h1.884817 1.884754v5.38509 5.38509h-1.525778c-.83918.0-1.687329-.16155-1.884753-.35872zm-4.936308-4.57599c-7.138442-3.93838-8.540956-13.14093-3.509053-23.0243 2.937451-5.76957 7.194095-8.65919 12.755622-8.65919h3.08838l-2.04815 2.09757c-1.12654 1.15363-2.730993 2.23406-3.565467 2.40095-4.939743.98795-9.899648 10.66855-8.895799 17.3626.3142 2.09725.827414 3.05003 2.496744 4.63807 1.670284 1.58881 2.101005 2.38938 2.101005 3.90492.0 2.01934-.552712 2.31128-2.423282 1.27938zm64.789529-5.07121c-2.81266-.86552-4.24335-2.37361-5.58531-5.8875-.99234-2.59825-.78442-4.31357.75293-6.21206l1.00423-1.24026 1.25814 1.17214c.692.64468 1.46573 1.17215 1.71951 1.17215.25378.0.31293.79008.13166 1.7557-.45222 2.41075.48974 4.5739 2.47009 5.67099 2.90311 1.60852 3.19498 1.93652 2.85509 3.20878-.37081 1.38757-1.08571 1.44347-4.60666.35999zm-53.91027-10.88168-1.4387-1.50161 15.47377-15.42136c16.89625-16.83908 17.16727-17.03421 21.27444-15.31813 3.23105 1.35004 4.59266 5.58264 2.85134 8.86355-.42424.79974-5.97222 6.63629-12.32834 12.97009l-11.55658 11.51593-1.75322-.61122c-2.40642-.83893-6.96404-.73462-8.59304.19653-1.88826 1.07941-2.30047 1.00665-3.92967-.69391zm52.64011-3.05118c-1.61482-1.61482-1.67142-2.93509-.20543-4.79841 1.1149-1.4174 3.74336-1.93316 5.13074-1.00678.80878.53999 1.83075 2.55838 1.83075 3.61572.0 1.34756-2.48885 3.51127-4.0388 3.51127-.76737.0-1.99002-.59469-2.717-1.3218zm16.72078-1.90421c-1.26482-2.44586-3.11134-3.42033-5.88839-3.10727-2.14298.24169-2.4755.11639-3.55103-1.33853l-1.18664-1.60503 1.33904-1.33904c1.65101-1.65101 4.02684-1.73802 7.39966-.27095 2.99202 1.30151 3.91732 2.35033 5.03165 5.70362.99182 2.98464.82665 3.56769-1.01079 3.56769-.89966.0-1.55745-.49674-2.1335-1.61049zm-27.07201-6.53841-6.58127-5.45919 1.85129-2.04917c2.32508-2.57358 3.69319-5.17762 3.16986-6.03346-.48529-.79352.96601.41278 8.85274 7.35952 3.32467 2.92836 6.04485 5.53335 6.04485 5.78891.0.25569-.55208.46494-1.22646.46494-1.70845.0-3.45881 1.35131-4.57931 3.53532l-.95042 1.85257zm-42.56358 3.14346-1.16101-1.23588 3.7461-3.71735 3.74604-3.71735 1.37389 1.2907 1.37389 1.2907-3.63447 3.66253c-1.99892 2.01437-3.78045 3.66252-3.95892 3.66252-.17873.0-.84694-.55589-1.48552-1.23587z" id="path39" /></g></svg>