<svg data-name="Layer 1" id="Layer_1" viewBox="0 0 405.71265 415.33032" sodipodi:docname="worker.svg" width="405.71265" height="415.33032" inkscape:version="1.1.2 (b8e25be8, 2022-02-05)" xmlns:inkscape="http://www.inkscape.org/namespaces/inkscape" xmlns:sodipodi="http://sodipodi.sourceforge.net/DTD/sodipodi-0.dtd" xmlns="http://www.w3.org/2000/svg" xmlns:svg="http://www.w3.org/2000/svg"><defs id="defs15" /><sodipodi:namedview id="namedview13" pagecolor="#ffffff" bordercolor="#666666" borderopacity="1" inkscape:pageshadow="2" inkscape:pageopacity="0" inkscape:pagecheckerboard="0" showgrid="false" fit-margin-top="1" fit-margin-left="1" fit-margin-bottom="1" fit-margin-right="1" inkscape:zoom="1.65625" inkscape:cx="36.528302" inkscape:cy="208" inkscape:window-width="1293" inkscape:window-height="1035" inkscape:window-x="41" inkscape:window-y="23" inkscape:window-maximized="0" inkscape:current-layer="Layer_1" /><path d="m193.40766 234.07628a5.48 5.48.0 1 0-8.77-6.56c-.09.11-8.45 11.09-22.06 11.09-13.45.0-22-11-22.06-11.09a5.48 5.48.0 1 0-8.77 6.56c.47.63 11.8 15.48 30.83 15.48 19.03.0 30.36-14.85 30.83-15.48z" id="path2" /><path d="m319.16766 346.43628c-1.6-19.73-13.71-36.62-30.85-43l-83.35-31.08a90.67 90.67.0 0 0 48.18-80v-34c11.85-3.35 19.43-7.18 24.26-10.74a13.23 13.23.0 0 0 3.25-17.87 36.69 36.69.0 0 0-17.27-14.47c-1.15-16.480001-9.26-78.130001-66.28-97.380001l.8-8.6100003a5.46 5.46.0 0 0-4.31-5.86c-25-5.31-60.21-.28-61.7-.07a5.47 5.47.0 0 0-4.65 5.93l.8 8.6100003c-57.000004 19.24-65.130004 80.9-66.280004 97.380001a36.64 36.64.0 0 0-17.27 14.47 13.24 13.24.0 0 0 3.25 17.76c4.83 3.56 12.41 7.39 24.25 10.74v34a90.68 90.68.0 0 0 48.190004 80l-83.330004 31.18c-17.14 6.4-29.2500003 23.28-30.8400003 43l-5 61.74a5.48 5.48.0 0 0 5 5.9h.45a5.48 5.48.0 0 0 5.4500003-5l5-61.74c1.24-15.52 10.57-28.72 23.74-33.64l14.9-5.55v100.48a5.5 5.5.0 1 0 11 0v-104.57l22.69-8.46 8.74 65.79a5.49 5.49.0 0 0 5.430004 4.76h118.37a5.49 5.49.0 0 0 5.43-4.76l8.74-65.79 22.69 8.46v104.57a5.48 5.48.0 1 0 10.95.0v-100.48l14.89 5.55c13.18 4.92 22.51 18.12 23.76 33.64l5 61.74a5.48 5.48.0 0 0 5.46 5h.44a5.47 5.47.0 0 0 5-5.9zm-265.490004-210.79c2.64-4.06 7.34-9.27 14.67-11.06a5.47 5.47.0 0 0 4.18-5.31c0-2.91.82-69.520001 56.560004-90.220001l7 75.330001a5.4728877 5.4728877.0 1 0 10.9-1l-8.35-89.880001c9.59-1.07 30.79-2.85 47.91-.29l-8.39 90.180001a5.47 5.47.0 0 0 4.94 6h.52a5.47 5.47.0 0 0 5.44-5l7-75.330001c55.75 20.7 56.56 87.310001 56.57 90.220001a5.47 5.47.0 0 0 4.18 5.31c7.33 1.79 12 7 14.68 11.06a2.32 2.32.0 0 1-.58 3.08c-7.22 5.32-32.15 17.6-108.33 18-76.170004-.36-101.110004-12.64-108.330004-18a2.31 2.31.0 0 1-.57-3.09zm29.27 56.67v-31.37c17.380004 3.66 41.650004 6.32 75.560004 6.66a4.44 4.44.0 0 0 .63.0h6.88a4.44 4.44.0 0 0 .63.0c33.9-.34 58.18-3 75.55-6.66v31.37a79.63 79.63.0 1 1-159.250004.0zm134.000004 162.87h-108.79l-8.430004-63.53 33.630004-12.54a5.54 5.54.0 0 0 1.23-.65 90.61 90.61.0 0 0 56 0 5.84 5.84.0 0 0 1.24.65l33.63 12.54z" id="path4" /><path d="m386.49766 218.25628-29.14-12.11a46.86 46.86.0 1 0-51.34.0l-29.16 12.11a29.54 29.54.0 0 0-18.23 27.34v17a5.48 5.48.0 1 0 10.95.0v-17a18.59 18.59.0 0 1 11.49-17.22l38.68-16.09a46.9 46.9.0 0 0 23.84.0l38.68 16.09a18.59 18.59.0 0 1 11.49 17.22v17a5.48 5.48.0 1 0 10.95.0v-17a29.54 29.54.0 0 0-18.21-27.34zm-90.72-51.29a35.91 35.91.0 1 1 35.91 35.91 36 36 0 0 1-35.91-35.91z" id="path6" /><path d="m131.77766 179.76628a5.48 5.48.0 0 0-10.95.0v15.79a5.48 5.48.0 1 0 10.95.0z" id="path8" /><path d="m198.85766 201.03628a5.47 5.47.0 0 0 5.47-5.48v-15.79a5.5 5.5.0 0 0-11 0v15.79a5.48 5.48.0 0 0 5.53 5.48z" id="path10" /></svg>